<svg role="img" version="1.1" id="Capa_1" xmlns="http://www.w3.org/2000/svg" xmlns:xlink="http://www.w3.org/1999/xlink" x="0px" y="0px"
	 viewBox="0 0 487.279 487.279" style="enable-background:new 0 0 487.279 487.279;" xml:space="preserve">
<g>
	<g>
		<path d="M107.874,263.733c36.239,0,65.722-29.481,65.722-65.72s-29.482-65.722-65.722-65.722
			c-36.239,0-65.721,29.482-65.721,65.722C42.153,234.252,71.635,263.733,107.874,263.733z"/>
		<path d="M478.594,275.332H191.017v-23.77c0-8.022-2.688-15.415-7.206-21.338c-12.572,29.525-41.875,50.278-75.936,50.278
			c-38.251,0-70.497-26.175-79.789-61.55c-12.858,5.246-21.924,17.865-21.924,32.609v24.146C2.6,276.794,0,280.106,0,284.017v74.42
			c0,4.789,3.896,8.688,8.686,8.688h469.907c4.79,0,8.686-3.898,8.686-8.688v-74.421
			C487.28,279.228,483.384,275.332,478.594,275.332z"/>
		<path d="M245.667,252.608h240.78v-109.19h-15.266c-2.967,17.727-23.295,31.04-48.723,31.04c-18.387,0-34.103-6.964-42.524-17.521
			c-8.423,10.557-24.139,17.521-42.526,17.521c-18.002,0-33.45-6.673-41.993-16.858c-8.543,10.186-23.993,16.858-41.994,16.858
			c-18.39,0-34.107-6.966-42.529-17.524c-10.331,9.44-16.822,23.017-16.822,38.08v5.998
			C194.069,229.462,217.216,252.608,245.667,252.608z"/>
		<path d="M337.408,157.689c19.061,0,32.344-9.891,32.344-18.767c0-8.876-13.283-18.767-32.344-18.767
			c-19.06,0-32.342,9.891-32.342,18.768C305.066,147.798,318.349,157.689,337.408,157.689z"/>
		<path d="M253.421,157.689c19.06,0,32.342-9.891,32.342-18.767c0-8.876-13.283-18.767-32.342-18.767s-32.342,9.891-32.342,18.768
			C221.079,147.798,234.361,157.689,253.421,157.689z"/>
		<path d="M422.459,157.689c19.061,0,32.343-9.891,32.343-18.767c0-8.876-13.282-18.767-32.343-18.767
			c-19.059,0-32.341,9.891-32.341,18.768C390.118,147.798,403.4,157.689,422.459,157.689z"/>
	</g>
</g>
<g>
</g>
<g>
</g>
<g>
</g>
<g>
</g>
<g>
</g>
<g>
</g>
<g>
</g>
<g>
</g>
<g>
</g>
<g>
</g>
<g>
</g>
<g>
</g>
<g>
</g>
<g>
</g>
<g>
</g>
</svg>
